<?xml version="1.0" encoding="UTF-8"?>
<svg xmlns="http://www.w3.org/2000/svg" xmlns:xlink="http://www.w3.org/1999/xlink" width="20pt" height="20pt" viewBox="0 0 20 20" version="1.1">
<g id="surface1">
<path style="fill:none;stroke-width:26;stroke-linecap:butt;stroke-linejoin:miter;stroke:rgb(0%,0%,0%);stroke-opacity:1;stroke-miterlimit:4;" d="M 209.015625 15.011719 C 101.472656 15.585938 14.765625 103.03125 15.011719 210.492188 C 15.257812 318.035156 102.539062 404.988281 210 404.988281 C 317.460938 404.988281 404.742188 318.035156 404.988281 210.492188 C 405.234375 103.03125 318.527344 15.585938 210.984375 15.011719 Z M 209.015625 15.011719 " transform="matrix(0.047619,0,0,0.047619,0,0)"/>
<path style="fill:none;stroke-width:18;stroke-linecap:butt;stroke-linejoin:miter;stroke:rgb(0%,0%,0%);stroke-opacity:1;stroke-miterlimit:4;" d="M 210 15.011719 L 210 404.988281 M 404.988281 210 L 15.011719 210 M 58.980469 89.988281 C 149.378906 154.464844 270.621094 154.464844 361.019531 89.988281 M 361.019531 330.011719 C 270.621094 265.535156 149.378906 265.535156 58.980469 330.011719 M 194.988281 20.015625 C 138.714844 67.511719 106.3125 137.402344 106.3125 210.984375 C 106.3125 284.648438 138.714844 354.539062 194.988281 402.035156 M 225.011719 402.035156 C 281.285156 354.539062 313.6875 284.648438 313.6875 210.984375 C 313.6875 137.402344 281.285156 67.511719 225.011719 20.015625 " transform="matrix(0.047619,0,0,0.047619,0,0)"/>
</g>
</svg>
